<svg height="512" viewBox="0 0 128 128" width="512" xmlns="http://www.w3.org/2000/svg"><g><path d="m118.386 26.218a1.75 1.75 0 0 0 -1.361-2.85h-66.767a20.556 20.556 0 1 0 -22.792 22.183 21.387 21.387 0 0 0 2.324.127 20.429 20.429 0 0 0 11.52-3.53l25.871 31.985v37.034a2.247 2.247 0 0 1 -1.359 2.066l-15.885 6.853a1.75 1.75 0 0 0 .693 3.357h45.55a1.75 1.75 0 0 0 .693-3.357l-15.885-6.853a2.249 2.249 0 0 1 -1.359-2.066v-37.034zm-90.538 15.853a17.062 17.062 0 1 1 18.909-18.7h-16.971a1.75 1.75 0 0 0 -1.361 2.85l10.675 13.192a17.03 17.03 0 0 1 -11.252 2.658zm51.752 74.376 8.1 3.5h-28.6l8.1-3.5a5.745 5.745 0 0 0 3.473-5.28v-37.653a1.748 1.748 0 0 0 -.389-1.1l-36.831-45.546h79.905l-36.839 45.546a1.749 1.749 0 0 0 -.39 1.1v37.653a5.747 5.747 0 0 0 3.471 5.28z"/><path d="m98.016 38.29a1.751 1.751 0 0 0 -1.974-.683c-8.894 2.811-13.384 1.34-18.582-.366a39.643 39.643 0 0 0 -13.4-2.5c-9.933 0-14.577 2.943-14.77 3.069a1.75 1.75 0 0 0 -.407 2.568l23.161 28.637a1.75 1.75 0 0 0 2.722 0l23.165-28.638a1.752 1.752 0 0 0 .085-2.087zm-24.611 26.842-20.389-25.208a32.06 32.06 0 0 1 11.041-1.684 36.181 36.181 0 0 1 12.312 2.327c4.487 1.472 8.773 2.879 15.551 1.675z"/><path d="m29.786 19.825a1.75 1.75 0 0 0 1.75-1.75v-4.725a1.75 1.75 0 0 0 -3.5 0v4.725a1.75 1.75 0 0 0 1.75 1.75z"/><path d="m28.036 36.886a1.75 1.75 0 0 0 3.5 0v-4.726a1.75 1.75 0 0 0 -3.5 0z"/><path d="m24.494 25.118a1.75 1.75 0 0 0 -1.75-1.75h-4.726a1.75 1.75 0 0 0 0 3.5h4.726a1.751 1.751 0 0 0 1.75-1.75z"/><path d="m34.766 21.888a1.745 1.745 0 0 0 1.234-.513l3.342-3.341a1.75 1.75 0 1 0 -2.475-2.475l-3.339 3.341a1.751 1.751 0 0 0 1.238 2.988z"/><path d="m23.569 28.86-3.342 3.34a1.75 1.75 0 1 0 2.473 2.476l3.341-3.342a1.749 1.749 0 0 0 -2.474-2.474z"/><path d="m22.7 15.559a1.75 1.75 0 1 0 -2.475 2.475l3.342 3.341a1.75 1.75 0 0 0 2.476-2.475z"/></g></svg>