<?xml version="1.0" encoding="iso-8859-1"?>
<!-- Generator: Adobe Illustrator 19.0.0, SVG Export Plug-In . SVG Version: 6.00 Build 0)  -->
<svg version="1.1" id="Layer_1" xmlns="http://www.w3.org/2000/svg" xmlns:xlink="http://www.w3.org/1999/xlink" x="0px" y="0px"
	 viewBox="0 0 512.001 512.001" style="enable-background:new 0 0 512.001 512.001;" xml:space="preserve">
<g>
	<g>
		<path d="M499.363,5.516C485.873,1.568,155.886-31.286,39.997,125.282c-51.326,69.36-52.097,164.441-2.572,282.581
			c-12.563,26.076-23.561,53.544-32.524,82.527c-2.725,8.807,2.204,18.145,11.001,20.861c1.64,0.51,3.301,0.749,4.941,0.749
			c7.112,0,13.715-4.594,15.919-11.749c88.328-285.566,375.375-423.719,463.4-458.62C508.729,38.232,520.177,11.608,499.363,5.516z"
			/>
	</g>
</g>
<g>
	<g>
		<path d="M90.4,443.601c47.777,20.043,95.547,30.316,139.97,30.316c39.929,0,77.166-8.21,109.254-24.857
			c64.579-33.501,104.042-97.581,114.119-185.334c10.267-89.433,23.049-145.451,33.712-179.72
			C392.541,127.788,189.028,241.274,90.4,443.601z"/>
	</g>
</g>
<g>
</g>
<g>
</g>
<g>
</g>
<g>
</g>
<g>
</g>
<g>
</g>
<g>
</g>
<g>
</g>
<g>
</g>
<g>
</g>
<g>
</g>
<g>
</g>
<g>
</g>
<g>
</g>
<g>
</g>
</svg>
