<svg id="Capa_1" enable-background="new 0 0 512 512" height="512" viewBox="0 0 512 512" width="512" xmlns="http://www.w3.org/2000/svg"><g><g><path d="m96 193c-21.358 0-39.437 14.323-45.133 33.867-19.544 5.697-33.867 23.775-33.867 45.133 0 25.916 21.084 47 47 47h64c8.284 0 15-6.716 15-15v-64c0-25.916-21.084-47-47-47z" fill="#96d857"/></g><g><path d="m289 124c-6.626-4.969-16.03-3.626-21 3l-12 16-12-16c-4.971-6.628-14.373-7.97-21-3-6.627 4.971-7.971 14.373-3 21l24 32c2.833 3.777 7.278 6 12 6s9.167-2.223 12-6l24-32c4.971-6.627 3.627-16.029-3-21z" fill="#96d857"/></g><g><path d="m289 124c-6.626-4.969-16.03-3.626-21 3l-12 16v40c4.722 0 9.167-2.223 12-6l24-32c4.971-6.627 3.627-16.029-3-21z" fill="#65be38"/></g><g><path d="m429.927 300.288c-18.921-43.028-39.13-72.892-63.6-93.981-18.562-15.999-39.507-26.895-63.326-32.859l-15.001 7.599-15-12.4c-5.528-.432-11.194-.646-17-.646s-11.472.215-17 .646l-15 12.4-15.001-7.6c-23.819 5.964-44.764 16.86-63.326 32.859-24.47 21.089-44.679 50.953-63.6 93.981-1.849 4.205-1.285 8.968 1.506 12.717 2.79 3.751 7.443 5.996 12.421 5.996h320c4.978 0 9.631-2.246 12.421-5.995 2.791-3.749 3.354-8.512 1.506-12.717z" fill="#ffe04d"/></g><g><path d="m429.927 300.288c-18.921-43.028-39.13-72.892-63.6-93.981-18.562-15.999-39.507-26.895-63.326-32.859l-15.001 7.6-15-12.4c-5.528-.432-11.194-.646-17-.646v151h160c4.978 0 9.631-2.246 12.421-5.995 2.791-3.751 3.354-8.514 1.506-12.719z" fill="#ffbe3f"/></g><path d="m288 231c8.284 0 15-6.716 15-15v-42.548c-9.529-2.386-19.519-3.981-30-4.8v47.348c0 8.285 6.716 15 15 15z" fill="#ff3f5c"/><path d="m224 231c8.284 0 15-6.716 15-15v-47.348c-10.481.818-20.471 2.414-30 4.8v42.548c0 8.285 6.716 15 15 15z" fill="#ff637b"/><g><path d="m471.479 208.52c-11.41-11.41-27.203-16.827-44.492-15.26-16.256 1.479-31.996 9.08-44.321 21.406-12.326 12.325-19.928 28.065-21.406 44.321-1.571 17.281 3.849 33.082 15.26 44.492 10.119 10.12 23.688 15.527 38.682 15.526 1.914 0 3.854-.088 5.812-.266 16.256-1.479 31.996-9.08 44.321-21.406 12.326-12.325 19.928-28.065 21.406-44.321 1.571-17.28-3.849-33.081-15.262-44.492z" fill="#e1e5ef"/></g><g><path d="m497 299h-482c-8.284 0-15 6.716-15 15v14c0 34.738 28.262 63 63 63h386c34.738 0 63-28.262 63-63v-14c0-8.284-6.716-15-15-15z" fill="#4d5e80"/></g><g><path d="m497 299h-241v92h193c34.738 0 63-28.262 63-63v-14c0-8.284-6.716-15-15-15z" fill="#3e4566"/></g></g></svg>