<?xml version="1.0" encoding="iso-8859-1"?>
<!-- Generator: Adobe Illustrator 19.0.0, SVG Export Plug-In . SVG Version: 6.00 Build 0)  -->
<svg version="1.1" id="Capa_1" xmlns="http://www.w3.org/2000/svg" xmlns:xlink="http://www.w3.org/1999/xlink" x="0px" y="0px"
	 viewBox="0 0 512 512" style="enable-background:new 0 0 512 512;" xml:space="preserve">
<path style="fill:#7C6359;" d="M162.901,138.924v-11.412c0-4.036,2.145-7.388,5.609-9.595c10.536-6.322,20.768-14.999,26.78-25.538
	c4.001-5.552,7.23-5.838,18.448-7.859c30.426-5.341,66.344-4.588,94.992,2.114c10.916,2.446,7.143,14.811,34.744,31.266
	c0.007,0.004,0.015,0.01,0.021,0.013c0,0,0.003,0.002,0.006,0.003c0.071,0.043,0.104,0.06,0.175,0.105
	c0.94,0.575,5.433,3.632,5.433,9.49l0.002,11.412c0.106,0.027,17.536-0.484,24.918,12.954V118.03
	c0-65.186-52.837-118.024-118.023-118.024S137.983,52.844,137.983,118.03v33.85C142.197,144.207,151.237,138.924,162.901,138.924z"
	/>
<path style="fill:#604C42;" d="M162.899,118.03c0-60.978,46.236-111.146,105.565-117.37
	c-69.906-7.334-130.482,47.375-130.482,117.37v33.85c4.214-7.673,13.253-12.956,24.917-12.956L162.899,118.03L162.899,118.03z"/>
<path style="fill:#F2BF81;" d="M438.595,488.171L417.247,369.16c-4.241-23.589-25.008-28.427-25.267-28.486l-69.875-15.835
	l-26.172-17.609v-28.097c-25.184,11.972-54.665,11.979-79.867-0.005v28.102l-26.172,17.609l-69.875,15.835
	c-0.259,0.059-21.026,4.898-25.267,28.486L73.405,488.171C73.403,488.237,71.811,512,97.521,512c13.514,0,303.437,0,316.958,0
	C440.188,512,438.599,488.237,438.595,488.171z"/>
<path style="fill:#DDA568;" d="M241.822,287.025c-9.083-1.389-17.736-4.084-25.756-7.898v28.102l-26.172,17.609l-69.875,15.835
	c-0.259,0.059-21.026,4.898-25.267,28.486L73.405,488.171C73.403,488.237,71.811,512,97.521,512h144.301L241.822,287.025
	L241.822,287.025z"/>
<path style="fill:#484868;" d="M438.595,488.171L417.247,369.16c-4.241-23.589-25.008-28.427-25.267-28.486l-69.875-15.835
	l-26.166-17.605l-3.185,53.184l-36.748-25.625H256l-36.747,25.625l-3.186-53.188l-26.172,17.609l-69.875,15.835
	c-0.259,0.059-21.026,4.898-25.267,28.486L73.405,488.171C73.403,488.237,71.811,512,97.521,512c13.514,0,303.437,0,316.958,0
	C440.188,512,438.599,488.237,438.595,488.171z"/>
<path style="fill:#3D3D54;" d="M98.196,486.792L120.778,360.9c2.1-11.683,8.033-19.016,13.776-23.52l-14.535,3.294
	c-0.259,0.059-21.026,4.898-25.267,28.486L73.405,488.171C73.403,488.237,71.811,512,97.521,512h26.185
	C96.51,512,98.194,486.863,98.196,486.792z"/>
<path style="fill:#DADADA;" d="M256.006,334.792H256l-38.808,23.565l0,0L228.33,512c17.313,0,38.032,0,55.346,0l11.138-153.644
	L256.006,334.792z"/>
<g>
	<path style="fill:#F2BF81;" d="M135.377,159.992c0,12.775,12.221,23.129,28.555,23.129v-46.258
		C147.598,136.863,135.377,147.219,135.377,159.992z"/>
	<path style="fill:#F2BF81;" d="M376.637,159.992c0,12.775-12.221,23.129-28.556,23.129v-46.258
		C364.416,136.863,376.637,147.219,376.637,159.992z"/>
</g>
<path style="fill:#FFDDAB;" d="M349.109,166.091v-40.64c0-4.184-2.498-7.792-5.544-9.557c-0.003-0.002-0.067-0.039-0.07-0.041
	c-41.019-27.222-12.885-28.588-50.878-34.303c-31.955-4.439-62.117-3.017-86.349,2.356c-4.456,0.936-7.443,1.507-10.977,6.412
	c-5.97,10.465-16.467,19.382-26.843,25.576c-3.012,1.7-5.546,5.376-5.546,9.557v40.64l-0.002,0.001v30.97
	c0,51.424,41.681,93.106,93.106,93.106c51.424,0,93.105-41.682,93.105-93.106v-30.97L349.109,166.091z"/>
<path style="fill:#F9CE95;" d="M188.694,197.063v-30.97l0.002-0.001V99.444c-14.77,16.789-25.794,15.156-25.794,26.007v40.64
	l-0.002,0.001v30.97c0,56.368,49.767,100.011,106.003,92.213C223.584,282.995,188.694,244.11,188.694,197.063z"/>
<g>
	<path style="fill:#3D3D54;" d="M148.739,512v-76.861c0-4.268-3.459-7.727-7.727-7.727s-7.727,3.459-7.727,7.727V512H148.739z"/>
	<path style="fill:#3D3D54;" d="M378.727,512v-76.861c0-4.268-3.459-7.727-7.727-7.727s-7.727,3.459-7.727,7.727V512H378.727z"/>
</g>
<polygon style="fill:#C42323;" points="283.676,512 267.461,373.239 268.404,371.561 243.608,371.561 244.55,373.239 228.33,512 "/>
<g>
	<path style="fill:#60607C;" d="M327.139,421.99l-17.699-22.125c-0.003-0.003-0.004-0.006-0.007-0.009
		c-2.897-3.621-0.796-5.028,0.234-5.466l19.059-6.691c0,0,4.007-1.584,3.27-5.837c0-0.002,0-0.002,0-0.004l-9.885-57.02
		l-26.172-17.609L283.676,512l43.853-83.829C327.535,428.067,329.416,425.144,327.139,421.99z"/>
	<path style="fill:#60607C;" d="M184.866,421.99l17.699-22.125c0.016-0.104,3.477-3.902-0.227-5.475l-19.059-6.691
		c0,0-4.007-1.584-3.27-5.837c11.672-67.333,9.6-55.382,9.885-57.024l26.172-17.609L228.329,512l-43.853-83.829
		C184.471,428.067,182.589,425.144,184.866,421.99z"/>
</g>
<g>
	<polygon style="fill:#EDEDED;" points="216.066,307.229 256,334.792 219.252,360.417 	"/>
	<polygon style="fill:#EDEDED;" points="295.939,307.229 256.006,334.792 292.754,360.417 	"/>
</g>
<polygon style="fill:#AD1E1E;" points="266.333,371.561 243.608,371.561 244.55,373.239 228.33,512 252.086,512 267.461,373.239 "/>
<path style="fill:#D22E2E;" d="M256.006,334.792l-23.753,16.563l12.297,21.884c8.013,0,14.898,0,22.911,0l12.298-21.884
	L256.006,334.792z"/>
<path style="fill:#E84646;" d="M256.006,334.792l-23.753,16.563l12.297,21.884c8.013,0,14.898,0,22.911,0l12.298-21.884
	L256.006,334.792z"/>
<path style="fill:#D22E2E;" d="M248.701,339.886l-16.448,11.469l12.297,21.884c8.015,0,14.838,0,22.893,0L248.701,339.886z"/>
<g>
</g>
<g>
</g>
<g>
</g>
<g>
</g>
<g>
</g>
<g>
</g>
<g>
</g>
<g>
</g>
<g>
</g>
<g>
</g>
<g>
</g>
<g>
</g>
<g>
</g>
<g>
</g>
<g>
</g>
</svg>
